<?xml version="1.0" encoding="utf-8"?>
<!-- Generator: Adobe Illustrator 16.0.0, SVG Export Plug-In . SVG Version: 6.00 Build 0)  -->
<!DOCTYPE svg PUBLIC "-//W3C//DTD SVG 1.1//EN" "http://www.w3.org/Graphics/SVG/1.1/DTD/svg11.dtd">
<svg version="1.1" id="Шар_1" xmlns="http://www.w3.org/2000/svg" xmlns:xlink="http://www.w3.org/1999/xlink" x="0px" y="0px"
	 width="48px" height="46.683px" viewBox="0 0 48 46.683" enable-background="new 0 0 48 46.683" xml:space="preserve">
<g>
	<g>
		<path fill="#04C67D" d="M47,34.683H37c-4.411,0-8-3.589-8-8s3.589-8,8-8h10v2H37c-3.309,0-6,2.691-6,6c0,3.309,2.691,6,6,6h10
			V34.683z"/>
	</g>
	<g>
		<path fill="#04C67D" d="M2,39.683H0v-30c0-1.593,1.229-3.056,2.798-3.33l36.059-6.311c0.813-0.141,1.613,0.064,2.207,0.563
			C41.659,1.106,42,1.863,42,2.684v5h-2v-5c0-0.231-0.079-0.425-0.222-0.545c-0.144-0.121-0.349-0.163-0.576-0.125L3.143,8.324
			C2.534,8.43,2,9.066,2,9.684V39.683z"/>
	</g>
	<g>
		<path fill="#04C67D" d="M45,46.683H3c-1.654,0-3-1.346-3-3v-34c0-1.654,1.346-3,3-3h42c1.654,0,3,1.346,3,3v34
			C48,45.337,46.654,46.683,45,46.683z M3,8.684c-0.551,0-1,0.449-1,1v34c0,0.552,0.449,1,1,1h42c0.552,0,1-0.448,1-1v-34
			c0-0.551-0.448-1-1-1H3z"/>
	</g>
	<g>
		<g>
			<rect y="38.683" fill="#04C67D" width="2" height="2"/>
		</g>
		<g>
			<path fill="#04C67D" d="M44,40.683h-4v-2h4V40.683z M38,40.683h-4v-2h4V40.683z M32,40.683h-4v-2h4V40.683z M26,40.683h-4v-2h4
				V40.683z M20,40.683h-4v-2h4V40.683z M14,40.683h-4v-2h4V40.683z M8,40.683H4v-2h4V40.683z"/>
		</g>
		<g>
			<rect x="46" y="38.683" fill="#04C67D" width="2" height="2"/>
		</g>
	</g>
	<g>
		<g>
			<rect x="46" y="12.684" fill="#04C67D" width="2" height="2"/>
		</g>
		<g>
			<path fill="#04C67D" d="M44,14.684h-4v-2h4V14.684z M38,14.684h-4v-2h4V14.684z M32,14.684h-4v-2h4V14.684z M26,14.684h-4v-2h4
				V14.684z M20,14.684h-4v-2h4V14.684z M14,14.684h-4v-2h4V14.684z M8,14.684H4v-2h4V14.684z"/>
		</g>
		<g>
			<rect y="12.684" fill="#04C67D" width="2" height="2"/>
		</g>
	</g>
	<g>
		<path fill="#04C67D" d="M37.75,30.183c-1.93,0-3.5-1.57-3.5-3.5s1.57-3.5,3.5-3.5s3.5,1.57,3.5,3.5S39.68,30.183,37.75,30.183z
			 M37.75,25.183c-0.827,0-1.5,0.673-1.5,1.5s0.673,1.5,1.5,1.5s1.5-0.673,1.5-1.5S38.578,25.183,37.75,25.183z"/>
	</g>
</g>
</svg>
