<?xml version="1.0" encoding="utf-8"?>
<!-- Generator: Adobe Illustrator 16.0.0, SVG Export Plug-In . SVG Version: 6.00 Build 0)  -->
<!DOCTYPE svg PUBLIC "-//W3C//DTD SVG 1.1//EN" "http://www.w3.org/Graphics/SVG/1.1/DTD/svg11.dtd">
<svg version="1.1" id="Шар_1" xmlns="http://www.w3.org/2000/svg" xmlns:xlink="http://www.w3.org/1999/xlink" x="0px" y="0px"
	 width="48px" height="48.5px" viewBox="0 0 48 48.5" enable-background="new 0 0 48 48.5" xml:space="preserve">
<g>
	<g>
		<path fill="#5190F9" d="M41.11,34.524l-1.703-1.049c1.752-2.842,2.678-6.118,2.678-9.476c0-9.972-8.112-18.085-18.084-18.085
			S5.915,14.028,5.915,24c0,3.356,0.926,6.633,2.678,9.476l-1.702,1.049C4.944,31.367,3.915,27.728,3.915,24
			c0-11.075,9.01-20.085,20.085-20.085S44.084,12.925,44.084,24C44.084,27.729,43.056,31.368,41.11,34.524z"/>
	</g>
	<g>
		<path fill="#5190F9" d="M6.001,39.876C2.131,35.491,0,29.854,0,24C0,10.766,10.767,0,24,0c13.234,0,24,10.766,24,24
			c0,5.853-2.131,11.49-6,15.875l-1.5-1.324C44.047,34.532,46,29.364,46,24c0-12.131-9.869-22-22-22C11.869,2,2,11.869,2,24
			c0,5.365,1.954,10.533,5.5,14.552L6.001,39.876z"/>
	</g>
	<g>
		<path fill="#5190F9" d="M17.549,48.5H14.15c-2.426,0-4.4-2.691-4.4-6v-7c0-3.309,2.019-6,4.5-6h3.5v2h-3.5
			c-1.332,0-2.5,1.869-2.5,4v7c0,2.131,1.122,4,2.4,4h3.399V48.5z"/>
	</g>
	<g>
		<path fill="#5190F9" d="M17.75,48.5H14v-2h3.75v-15h-3.625v-2h3.625c1.103,0,2,0.897,2,2v15C19.75,47.603,18.853,48.5,17.75,48.5z
			"/>
	</g>
	<g>
		<path fill="#5190F9" d="M10.75,45h-3c-1.103,0-2-0.897-2-2v-8c0-1.103,0.897-2,2-2h3v2h-3v8h3V45z"/>
	</g>
	<g>
		<path fill="#5190F9" d="M33.85,48.5h-3.399v-2h3.399c1.278,0,2.4-1.869,2.4-4v-7c0-2.131-1.168-4-2.5-4h-3.5v-2h3.5
			c2.481,0,4.5,2.691,4.5,6v7C38.25,45.809,36.277,48.5,33.85,48.5z"/>
	</g>
	<g>
		<path fill="#5190F9" d="M34,48.5h-3.75c-1.103,0-2-0.897-2-2v-15c0-1.103,0.897-2,2-2h3.625v2H30.25v15H34V48.5z"/>
	</g>
	<g>
		<path fill="#5190F9" d="M40.25,45h-3v-2h3v-8h-3v-2h3c1.103,0,2,0.897,2,2v8C42.25,44.103,41.353,45,40.25,45z"/>
	</g>
</g>
</svg>
