<?xml version="1.0" encoding="UTF-8" standalone="no"?>
<svg width="48px" height="48px" viewBox="0 0 48 48" version="1.1" xmlns="http://www.w3.org/2000/svg" xmlns:xlink="http://www.w3.org/1999/xlink">
    <!-- Generator: Sketch 46.2 (44496) - http://www.bohemiancoding.com/sketch -->
    <title>Group 86</title>
    <desc>Created with Sketch.</desc>
    <defs></defs>
    <g id="Page-1" stroke="none" stroke-width="1" fill="none" fill-rule="evenodd">
        <g id="Group-86" fill-rule="nonzero" fill="#AB477F">
            <path d="M8.5,35 C6.57,35 5,33.43 5,31.5 C5,29.57 6.57,28 8.5,28 C10.43,28 12,29.57 12,31.5 C12,33.43 10.43,35 8.5,35 Z M8.5,30 C7.673,30 7,30.673 7,31.5 C7,32.327 7.673,33 8.5,33 C9.327,33 10,32.327 10,31.5 C10,30.673 9.327,30 8.5,30 Z" id="Shape"></path>
            <path d="M8.5,25 C6.57,25 5,23.43 5,21.5 C5,19.57 6.57,18 8.5,18 C10.43,18 12,19.57 12,21.5 C12,23.43 10.43,25 8.5,25 Z M8.5,20 C7.673,20 7,20.673 7,21.5 C7,22.327 7.673,23 8.5,23 C9.327,23 10,22.327 10,21.5 C10,20.673 9.327,20 8.5,20 Z" id="Shape"></path>
            <rect id="Rectangle-path" x="6" y="6" width="24" height="2"></rect>
            <rect id="Rectangle-path" x="6" y="11" width="24" height="2"></rect>
            <path d="M16.046,44 L3,44 C1.346,44 0,42.654 0,41 L0,3 C0,1.346 1.346,0 3,0 L33,0 C34.654,0 36,1.346 36,3 L36,16.991 L34,16.991 L34,3 C34,2.449 33.552,2 33,2 L3,2 C2.449,2 2,2.449 2,3 L2,41 C2,41.552 2.449,42 3,42 L16.046,42 L16.046,44 Z" id="Shape"></path>
            <path d="M18.053,47.137 L18.048,47.137 C16.396,47.137 15.051,45.793 15.051,44.141 L15.051,18.141 C15.051,16.487 16.397,15.141 18.051,15.141 L44.051,15.141 C45.705,15.141 47.051,16.487 47.051,18.141 L47.051,44.083 C47.051,45.736 45.706,47.084 44.053,47.087 L18.053,47.137 Z M18.051,17.141 C17.5,17.141 17.051,17.59 17.051,18.141 L17.051,44.141 C17.051,44.69 17.498,45.137 18.048,45.137 L18.048,46.137 L18.049,45.137 L44.049,45.087 C44.602,45.086 45.051,44.636 45.051,44.083 L45.051,18.141 C45.051,17.59 44.603,17.141 44.051,17.141 L18.051,17.141 Z" id="Shape"></path>
            <rect id="Rectangle-path" x="20.102" y="23.096" width="7.2" height="2"></rect>
            <rect id="Rectangle-path" x="34.938" y="39.563" width="7.199" height="2"></rect>
            <rect id="Rectangle-path" x="34.938" y="36.298" width="7.199" height="2"></rect>
            <rect id="Rectangle-path" x="19.964" y="37.933" width="7.319" height="2"></rect>
            <rect id="Rectangle-path" x="22.625" y="35.271" width="2" height="7.319"></rect>
            <rect id="Rectangle-path" transform="translate(38.615213, 24.000420) rotate(45.000000) translate(-38.615213, -24.000420) " x="37.6152225" y="20.3409551" width="1.99998082" height="7.31892981"></rect>
            <rect id="Rectangle-path" transform="translate(38.616720, 23.998006) rotate(45.000000) translate(-38.616720, -23.998006) " x="34.9572551" y="22.9980154" width="7.31892981" height="1.99998082"></rect>
            <rect id="Rectangle-path" x="16.042" y="30.374" width="29.477" height="2"></rect>
            <rect id="Rectangle-path" x="29.78" y="16.635" width="2" height="29.477"></rect>
        </g>
    </g>
</svg>